<?xml version="1.0" encoding="utf-8"?>
<!-- Generator: Adobe Illustrator 14.0.0, SVG Export Plug-In . SVG Version: 6.00 Build 43363)  -->
<!DOCTYPE svg PUBLIC "-//W3C//DTD SVG 1.1//EN" "http://www.w3.org/Graphics/SVG/1.1/DTD/svg11.dtd">
<svg version="1.1" id="Layer_3" xmlns="http://www.w3.org/2000/svg" xmlns:xlink="http://www.w3.org/1999/xlink" x="0px" y="0px"
	 width="35px" height="35px" viewBox="0 0 35 35" enable-background="new 0 0 35 35" xml:space="preserve">
<circle fill="none" stroke="#FFFFFF" stroke-width="0.25" cx="17.654" cy="17.5" r="3.821"/>
<line fill="none" stroke="#FFFFFF" stroke-width="0.5" x1="17.353" y1="13.679" x2="17.353" y2="10.465"/>
<line fill="none" stroke="#FFFFFF" stroke-width="0.25" x1="17.353" y1="9.56" x2="17.353" y2="8.001"/>
<line fill="none" stroke="#FFFFFF" stroke-width="0.25" x1="17.353" y1="7.147" x2="17.353" y2="4.633"/>
<line fill="none" stroke="#FFFFFF" stroke-width="0.25" x1="17.353" y1="3.778" x2="17.353" y2="2.371"/>
<line fill="none" stroke="#FFFFFF" stroke-width="0.25" x1="17.353" y1="1.566" x2="17.353" y2="0.812"/>
<line fill="none" stroke="#FFFFFF" stroke-width="0.5" x1="21.475" y1="17.5" x2="24.692" y2="17.5"/>
<line fill="none" stroke="#FFFFFF" stroke-width="0.25" x1="25.748" y1="17.5" x2="27.257" y2="17.5"/>
<line fill="none" stroke="#FFFFFF" stroke-width="0.25" x1="28.161" y1="17.5" x2="28.916" y2="17.5"/>
<line fill="none" stroke="#FFFFFF" stroke-width="0.25" x1="29.771" y1="17.5" x2="30.273" y2="17.5"/>
<line fill="none" stroke="#FFFFFF" stroke-width="0.25" x1="31.077" y1="17.5" x2="31.479" y2="17.5"/>
<line fill="none" stroke="#FFFFFF" stroke-width="0.25" x1="32.234" y1="17.5" x2="32.385" y2="17.5"/>
<line fill="none" stroke="#FFFFFF" stroke-width="0.5" x1="20.595" y1="14.789" x2="31.479" y2="3.326"/>
<line fill="none" stroke="#FFFFFF" stroke-width="0.5" x1="13.833" y1="20.269" x2="1.867" y2="32.889"/>
<line fill="none" stroke="#FFFFFF" stroke-width="0.5" x1="17.653" y1="21.32" x2="17.5" y2="32.889"/>
<line fill="none" stroke="#FFFFFF" stroke-width="0.5" x1="20.595" y1="20.269" x2="25.446" y2="26.252"/>
<line fill="none" stroke="#FFFFFF" stroke-width="0.25" x1="26.352" y1="27.106" x2="28.916" y2="30.073"/>
<line fill="none" stroke="#FFFFFF" stroke-width="0.25" x1="29.771" y1="31.229" x2="31.278" y2="32.889"/>
<line fill="none" stroke="#FFFFFF" stroke-width="0.5" x1="14.573" y1="15.241" x2="9.308" y2="8.73"/>
<line fill="none" stroke="#FFFFFF" stroke-width="0.25" x1="8.654" y1="8.001" x2="4.28" y2="2.371"/>
<line fill="none" stroke="#FFFFFF" stroke-width="0.25" x1="3.727" y1="1.868" x2="3.225" y2="1.189"/>
<line fill="none" stroke="#FFFFFF" stroke-width="0.5" x1="13.833" y1="17.5" x2="9.509" y2="17.5"/>
<line fill="none" stroke="#FFFFFF" stroke-width="0.25" x1="8.403" y1="17.5" x2="6.467" y2="17.5"/>
<line fill="none" stroke="#FFFFFF" stroke-width="0.25" x1="5.336" y1="17.5" x2="3.225" y2="17.5"/>
<line fill="none" stroke="#FFFFFF" stroke-width="0.25" x1="2.37" y1="17.5" x2="1.163" y2="17.5"/>
<line fill="none" stroke="#FFFFFF" stroke-width="0.25" x1="15.24" y1="21.827" x2="11.269" y2="30.676"/>
<line fill="none" stroke="#FFFFFF" stroke-width="0.25" x1="19.011" y1="21.32" x2="21.776" y2="27.66"/>
<line fill="none" stroke="#FFFFFF" stroke-width="0.25" x1="17.353" y1="21.306" x2="17.353" y2="21.307"/>
<line fill="none" stroke="#FFFFFF" stroke-width="0.25" x1="10.866" y1="31.48" x2="10.414" y2="32.587"/>
<line fill="none" stroke="#FFFFFF" stroke-width="0.25" x1="13.481" y1="7.549" x2="17.353" y2="17.252"/>
<line fill="none" stroke="#FFFFFF" stroke-width="0.25" x1="17.353" y1="17.252" x2="22.782" y2="7.549"/>
<line fill="none" stroke="#FFFFFF" stroke-width="0.25" x1="17.5" y1="16.989" x2="17.353" y2="17.252"/>
<line fill="none" stroke="#FFFFFF" stroke-width="0.25" x1="17.353" y1="17.252" x2="27.257" y2="14.236"/>
<line fill="none" stroke="#FFFFFF" stroke-width="0.25" x1="17.353" y1="17.252" x2="26.037" y2="21.306"/>
<line fill="none" stroke="#FFFFFF" stroke-width="0.25" x1="17.353" y1="17.252" x2="10.414" y2="15.241"/>
<line fill="none" stroke="#FFFFFF" stroke-width="0.25" x1="17.5" y1="16.989" x2="9.509" y2="20.57"/>
<line fill="none" stroke="#FFFFFF" stroke-width="0.25" x1="17.353" y1="17.252" x2="15.743" y2="25.8"/>
<line fill="none" stroke="#FFFFFF" stroke-width="0.25" x1="17.353" y1="17.252" x2="19.011" y2="21.32"/>
</svg>
